<svg
    width="24"
    height="24"
    viewBox="0 0 24 24"
    fill="none"
    xmlns="http://www.w3.org/2000/svg"
>
    <path
        fill-rule="evenodd"
        clip-rule="evenodd"
        d="M12 4C16.4183 4 20 7.58172 20 12C20 16.4183 16.4183 20 12 20C7.58172 20 4 16.4183 4 12C4 7.58172 7.58172 4 12 4ZM12 6C11.4477 6 11 6.44772 11 7L11.0001 9.17067C9.83485 9.58249 9 10.6937 9 12C9 13.6569 10.3431 15 12 15C13.3059 15 14.4169 14.1656 14.829 13.0009L17 13C17.5523 13 18 12.5523 18 12C18 11.4477 17.5523 11 17 11L14.8293 11.0001C14.5282 10.1479 13.8529 9.47248 13.0009 9.17102L13 7C13 6.44772 12.5523 6 12 6Z"
        fill="#DAC2F2"
    ></path>
    <path
        fill-rule="evenodd"
        clip-rule="evenodd"
        d="M12 14C10.8954 14 10 13.1046 10 12C10 10.8954 10.8954 10 12 10C13.1046 10 14 10.8954 14 12C14 13.1046 13.1046 14 12 14Z"
        fill="#8D4AFC"
    ></path>
</svg>